<svg xmlns="http://www.w3.org/2000/svg" viewBox="0 0 80 80"><defs><style>.cls-1{fill:#352929;}.cls-1,.cls-2{opacity:0.7;}.cls-2,.cls-3{fill:none;stroke-miterlimit:10;stroke-width:4px;}.cls-2{stroke:#352929;stroke-linecap:round;}.cls-3{stroke:#736a6a;}</style></defs><g id="disgust"><g id="eye_with_brow" data-name="eye with brow"><circle class="cls-1" cx="23.82" cy="27.48" r="4.01"/><path class="cls-2" d="M15.48,21.45s2.44-2.68,4.67-3.25,8.67,1.44,8.67,1.44"/></g><g id="eye_with_brow-2" data-name="eye with brow"><circle class="cls-1" cx="56.18" cy="27.48" r="4.01"/><path class="cls-2" d="M64.52,21.45s-2.44-2.68-4.67-3.25-8.67,1.44-8.67,1.44"/></g><path class="cls-3" d="M55.08,61.39a1.15,1.15,0,0,0,.83-2.08C52.31,56.65,46.2,53,40,53s-12.31,3.69-15.91,6.35a1.15,1.15,0,0,0,.83,2.08A129.9,129.9,0,0,1,40,60.07,129.9,129.9,0,0,1,55.08,61.39Z"/></g></svg>