<svg width="69" height="69" viewBox="0 0 69 69" fill="none" xmlns="http://www.w3.org/2000/svg">
<path d="M38.5196 66.91H29.9796C29.5907 66.7344 29.2511 66.4654 28.9912 66.127C28.7312 65.7885 28.5589 65.3911 28.4896 64.97C28.0096 62.88 27.4896 60.8 26.9796 58.71C26.9507 58.5297 26.873 58.3607 26.7549 58.2215C26.6368 58.0822 26.4828 57.9779 26.3096 57.92C25.3096 57.53 24.2597 57.09 23.2597 56.64C23.1117 56.5411 22.9377 56.4883 22.7597 56.4883C22.5817 56.4883 22.4077 56.5411 22.2597 56.64C20.7097 57.64 19.1496 58.52 17.5896 59.45C17.3795 59.6294 17.1344 59.7633 16.87 59.8433C16.6055 59.9233 16.3273 59.9476 16.0529 59.9147C15.7786 59.8819 15.514 59.7925 15.276 59.6522C15.0379 59.512 14.8314 59.324 14.6696 59.1L9.87966 54.31C9.65492 54.149 9.46595 53.9431 9.32479 53.7054C9.18362 53.4677 9.0933 53.2033 9.05947 52.9289C9.02564 52.6545 9.04905 52.3761 9.12825 52.1112C9.20746 51.8463 9.34071 51.6008 9.51961 51.39C10.4596 49.81 11.3996 48.23 12.3596 46.66C12.4427 46.5319 12.4869 46.3826 12.4869 46.23C12.4869 46.0774 12.4427 45.928 12.3596 45.8C11.8896 44.8 11.4396 43.71 11.0296 42.64C10.979 42.4745 10.8827 42.3267 10.7518 42.2134C10.6209 42.1002 10.4607 42.0263 10.2896 42C8.10296 41.4666 5.91964 40.9266 3.73964 40.38C3.48816 40.3527 3.24459 40.2757 3.02309 40.1536C2.80159 40.0314 2.60658 39.8664 2.44936 39.6683C2.29213 39.4701 2.17581 39.2427 2.1072 38.9992C2.03858 38.7557 2.01903 38.5011 2.04964 38.25V31.25C2.01751 30.9983 2.03558 30.7428 2.1028 30.4981C2.17002 30.2534 2.28502 30.0245 2.44124 29.8246C2.59746 29.6247 2.79176 29.4577 3.0129 29.3333C3.23403 29.209 3.47766 29.1296 3.72963 29.1C5.88963 28.5466 8.05296 28.01 10.2196 27.49C10.4219 27.465 10.6117 27.3788 10.7636 27.243C10.9155 27.1072 11.0223 26.9282 11.0697 26.73C11.3797 25.87 11.7297 25.02 12.0697 24.19C12.1492 24.0471 12.1858 23.8843 12.1752 23.7211C12.1645 23.5579 12.1071 23.4013 12.0097 23.27C10.9397 21.5 9.87966 19.72 8.81966 17.95C8.63466 17.7344 8.49646 17.4826 8.4139 17.2108C8.33134 16.9389 8.30619 16.6529 8.34004 16.3708C8.37389 16.0887 8.46602 15.8168 8.61055 15.5722C8.75509 15.3276 8.94888 15.1157 9.17964 14.95L13.9296 10.2C14.0911 9.96345 14.3014 9.76434 14.5464 9.61613C14.7914 9.46791 15.0654 9.37404 15.3498 9.34086C15.6342 9.30768 15.9225 9.33596 16.195 9.42379C16.4676 9.51162 16.7181 9.65696 16.9296 9.84997C18.6596 10.85 20.3696 11.92 22.0996 12.92C22.3622 13.0462 22.6639 13.0642 22.9397 12.97C24.0697 12.53 25.1596 11.97 26.2896 11.57C26.4527 11.5167 26.5978 11.4194 26.709 11.2888C26.8202 11.1582 26.8931 10.9994 26.9196 10.83C27.4496 8.63996 27.9896 6.45997 28.5396 4.26997C28.5694 4.01894 28.6484 3.77626 28.7721 3.55584C28.8959 3.33542 29.0619 3.14162 29.2607 2.98553C29.4595 2.82944 29.6872 2.71414 29.9307 2.64626C30.1742 2.57839 30.4287 2.55926 30.6796 2.58997H37.6796C37.9306 2.55926 38.1851 2.57839 38.4285 2.64626C38.672 2.71414 38.8997 2.82944 39.0985 2.98553C39.2974 3.14162 39.4634 3.33542 39.5872 3.55584C39.7109 3.77626 39.7899 4.01894 39.8197 4.26997C40.373 6.44997 40.913 8.63663 41.4397 10.83C41.4651 10.9998 41.5376 11.1592 41.6489 11.2899C41.7603 11.4207 41.906 11.5177 42.0697 11.57C43.0697 11.95 44.1196 12.4 45.1196 12.85C45.2616 12.9309 45.4238 12.9693 45.587 12.9604C45.7502 12.9516 45.9073 12.8959 46.0396 12.8C47.6796 11.8 49.3296 10.8 51.0396 9.79997C51.2493 9.62384 51.493 9.49266 51.7555 9.41454C52.0179 9.33643 52.2937 9.31307 52.5656 9.34588C52.8375 9.37869 53.0997 9.46699 53.3361 9.60531C53.5724 9.74363 53.7779 9.92901 53.9397 10.15C55.5263 11.73 57.1097 13.3133 58.6897 14.9C58.9284 15.059 59.13 15.2675 59.2811 15.5113C59.4321 15.7551 59.529 16.0286 59.565 16.3132C59.6011 16.5977 59.5755 16.8867 59.49 17.1605C59.4045 17.4343 59.2612 17.6865 59.0697 17.9C58.0697 19.53 57.0697 21.17 56.1297 22.79C56.0322 22.9213 55.9747 23.0779 55.9641 23.2411C55.9534 23.4043 55.9901 23.5671 56.0697 23.71C56.5397 24.71 56.9396 25.79 57.4096 26.81C57.5334 27.074 57.7561 27.2788 58.0296 27.38C60.0296 27.92 62.1496 28.44 64.2196 28.91C64.6741 28.9629 65.1078 29.1301 65.4802 29.3959C65.8527 29.6616 66.1518 30.0174 66.3496 30.43V38.96C66.174 39.3489 65.9051 39.6885 65.5666 39.9484C65.2282 40.2084 64.8307 40.3807 64.4096 40.45C62.3096 40.93 60.2396 41.45 58.1496 41.96C57.9693 41.9889 57.8004 42.0666 57.6611 42.1847C57.5218 42.3028 57.4176 42.4568 57.3596 42.63C56.9796 43.63 56.5496 44.63 56.0996 45.63C56.0299 45.7651 55.9987 45.9167 56.0092 46.0684C56.0198 46.22 56.0718 46.3659 56.1596 46.49C57.1596 48.11 58.1596 49.74 59.0896 51.37C59.2679 51.5793 59.4011 51.8231 59.481 52.0862C59.5608 52.3492 59.5856 52.626 59.5537 52.8991C59.5218 53.1721 59.4339 53.4357 59.2956 53.6733C59.1572 53.9109 58.9714 54.1174 58.7497 54.28C57.163 55.88 55.5663 57.4766 53.9596 59.07C53.7994 59.2939 53.5946 59.4824 53.3581 59.6235C53.1216 59.7646 52.8586 59.8554 52.5854 59.8902C52.3122 59.9249 52.0348 59.9028 51.7705 59.8254C51.5063 59.7479 51.2608 59.6167 51.0496 59.44C49.4296 58.44 47.8196 57.51 46.2096 56.53C46.0818 56.4512 45.9347 56.4095 45.7846 56.4095C45.6345 56.4095 45.4874 56.4512 45.3596 56.53C44.2796 57.03 43.1696 57.46 42.0996 57.95C41.8355 58.0767 41.6285 58.298 41.5196 58.57C40.9896 60.63 40.4697 62.69 39.9997 64.76C39.9539 65.214 39.7943 65.649 39.5355 66.0249C39.2768 66.4007 38.9274 66.7052 38.5196 66.91V66.91ZM34.2396 21.6C31.6325 21.6019 29.0844 22.3771 26.9179 23.8275C24.7513 25.2778 23.0636 27.3381 22.0681 29.7478C21.0727 32.1574 20.8143 34.8082 21.3256 37.3648C21.8369 39.9213 23.0949 42.2688 24.9406 44.1102C26.7862 45.9517 29.1366 47.2044 31.6943 47.7099C34.252 48.2154 36.9022 47.9509 39.3096 46.95C41.717 45.9491 43.7734 44.2566 45.2188 42.0868C46.6642 39.9169 47.4336 37.3672 47.4296 34.76C47.4034 31.2726 46.0043 27.936 43.5355 25.4729C41.0668 23.0097 37.727 21.6183 34.2396 21.6V21.6Z" stroke="#736A6A" stroke-width="4" stroke-miterlimit="10"/>
</svg>
