<svg width="60" height="60" viewBox="0 0 60 60" fill="none" xmlns="http://www.w3.org/2000/svg">
<path d="M18.2551 23.6175C19.9161 23.6175 21.2626 22.271 21.2626 20.61C21.2626 18.949 19.9161 17.6025 18.2551 17.6025C16.5941 17.6025 15.2476 18.949 15.2476 20.61C15.2476 22.271 16.5941 23.6175 18.2551 23.6175Z" fill="#5D7082"/>
<path d="M12 16.0877L18.6 11.5127" stroke="#5D7082" stroke-width="3" stroke-miterlimit="10" stroke-linecap="round"/>
<path d="M42.525 23.6175C44.186 23.6175 45.5325 22.271 45.5325 20.61C45.5325 18.949 44.186 17.6025 42.525 17.6025C40.864 17.6025 39.5175 18.949 39.5175 20.61C39.5175 22.271 40.864 23.6175 42.525 23.6175Z" fill="#5D7082"/>
<path d="M48.7799 16.0877L42.1799 11.5127" stroke="#5D7082" stroke-width="3" stroke-miterlimit="10" stroke-linecap="round"/>
<path d="M41.6624 35.625H19.1249C16.2296 35.625 13.8824 37.9721 13.8824 40.8675V40.875C13.8824 43.7704 16.2296 46.1175 19.1249 46.1175H41.6624C44.5578 46.1175 46.9049 43.7704 46.9049 40.875V40.8675C46.9049 37.9721 44.5578 35.625 41.6624 35.625Z" stroke="#5D7082" stroke-width="2.7" stroke-miterlimit="10"/>
<path d="M15.6 40.9575H45.18" stroke="#5D7082" stroke-width="2.7" stroke-miterlimit="10" stroke-linecap="round"/>
<path d="M30.39 45.6302V36.2852" stroke="#5D7082" stroke-width="2.7" stroke-miterlimit="10" stroke-linecap="round"/>
<path d="M38.295 45.6302V36.2852" stroke="#5D7082" stroke-width="2.7" stroke-miterlimit="10" stroke-linecap="round"/>
<path d="M22.485 36.2852V45.6302" stroke="#5D7082" stroke-width="2.7" stroke-miterlimit="10" stroke-linecap="round"/>
</svg>
