<svg width="60" height="60" viewBox="0 0 60 60" fill="none" xmlns="http://www.w3.org/2000/svg">
<path d="M17.865 23.6175C19.526 23.6175 20.8725 22.271 20.8725 20.61C20.8725 18.949 19.526 17.6025 17.865 17.6025C16.204 17.6025 14.8575 18.949 14.8575 20.61C14.8575 22.271 16.204 23.6175 17.865 23.6175Z" fill="#5D7082"/>
<path d="M11.61 16.0876C11.61 16.0876 13.44 14.0776 15.1125 13.6501C16.785 13.2226 21.615 14.7301 21.615 14.7301" stroke="#5D7082" stroke-width="3" stroke-miterlimit="10" stroke-linecap="round"/>
<path d="M42.1351 23.6175C43.7961 23.6175 45.1426 22.271 45.1426 20.61C45.1426 18.949 43.7961 17.6025 42.1351 17.6025C40.4741 17.6025 39.1276 18.949 39.1276 20.61C39.1276 22.271 40.4741 23.6175 42.1351 23.6175Z" fill="#5D7082"/>
<path d="M48.39 16.0876C48.39 16.0876 46.56 14.0776 44.8875 13.6501C43.215 13.2226 38.385 14.7301 38.385 14.7301" stroke="#5D7082" stroke-width="3" stroke-miterlimit="10" stroke-linecap="round"/>
<path d="M41.3099 46.0425C41.5023 46.0715 41.6989 46.0347 41.8677 45.9379C42.0365 45.8411 42.1676 45.69 42.2397 45.5093C42.3118 45.3286 42.3207 45.1288 42.2649 44.9424C42.2091 44.756 42.092 44.5939 41.9324 44.4825C39.2324 42.4875 34.6499 39.75 29.9999 39.75C25.3499 39.75 20.7674 42.5175 18.0674 44.5125C17.9079 44.6239 17.7907 44.786 17.7349 44.9724C17.6792 45.1588 17.688 45.3586 17.7602 45.5393C17.8323 45.72 17.9634 45.8711 18.1322 45.9679C18.301 46.0647 18.4975 46.1015 18.6899 46.0725C22.4369 45.5129 26.2133 45.1723 29.9999 45.0525C33.786 45.1624 37.5624 45.4929 41.3099 46.0425V46.0425Z" stroke="#5D7082" stroke-width="3" stroke-miterlimit="10"/>
</svg>
