<svg width="60" height="60" viewBox="0 0 60 60" fill="none" xmlns="http://www.w3.org/2000/svg">
<path d="M18.2551 23.6175C19.9161 23.6175 21.2626 22.271 21.2626 20.61C21.2626 18.949 19.9161 17.6025 18.2551 17.6025C16.5941 17.6025 15.2476 18.949 15.2476 20.61C15.2476 22.271 16.5941 23.6175 18.2551 23.6175Z" fill="#5D7082"/>
<path d="M12 16.0876C12 16.0876 13.83 14.0776 15.5025 13.6501C17.175 13.2226 22.005 14.7301 22.005 14.7301" stroke="#5D7082" stroke-width="3" stroke-miterlimit="10" stroke-linecap="round"/>
<path d="M42.5251 23.6175C44.1861 23.6175 45.5326 22.271 45.5326 20.61C45.5326 18.949 44.1861 17.6025 42.5251 17.6025C40.8641 17.6025 39.5176 18.949 39.5176 20.61C39.5176 22.271 40.8641 23.6175 42.5251 23.6175Z" fill="#5D7082"/>
<path d="M48.78 16.0876C48.78 16.0876 46.95 14.0776 45.2775 13.6501C43.605 13.2226 38.775 14.7301 38.775 14.7301" stroke="#5D7082" stroke-width="3" stroke-miterlimit="10" stroke-linecap="round"/>
<path d="M41.6999 46.0425C41.8924 46.0715 42.0889 46.0347 42.2577 45.9379C42.4265 45.8411 42.5576 45.69 42.6297 45.5093C42.7018 45.3286 42.7107 45.1288 42.6549 44.9424C42.5992 44.756 42.482 44.5939 42.3224 44.4825C39.6224 42.4875 35.0399 39.75 30.3899 39.75C25.7399 39.75 21.1574 42.5175 18.4574 44.5125C18.2979 44.6239 18.1807 44.786 18.125 44.9724C18.0692 45.1588 18.0781 45.3586 18.1502 45.5393C18.2223 45.72 18.3534 45.8711 18.5222 45.9679C18.691 46.0647 18.8875 46.1015 19.0799 46.0725C22.8269 45.5129 26.6033 45.1723 30.3899 45.0525C34.176 45.1624 37.9524 45.4929 41.6999 46.0425V46.0425Z" stroke="#5D7082" stroke-width="2.8" stroke-miterlimit="10"/>
</svg>
