<svg width="60" height="60" viewBox="0 0 60 60" fill="none" xmlns="http://www.w3.org/2000/svg">
<path d="M17.865 23.6175C19.526 23.6175 20.8725 22.271 20.8725 20.61C20.8725 18.949 19.526 17.6025 17.865 17.6025C16.204 17.6025 14.8575 18.949 14.8575 20.61C14.8575 22.271 16.204 23.6175 17.865 23.6175Z" fill="#5D7082"/>
<path d="M11.61 16.0877L18.21 11.5127" stroke="#5D7082" stroke-width="3" stroke-miterlimit="10" stroke-linecap="round"/>
<path d="M42.1349 23.6175C43.7959 23.6175 45.1424 22.271 45.1424 20.61C45.1424 18.949 43.7959 17.6025 42.1349 17.6025C40.4739 17.6025 39.1274 18.949 39.1274 20.61C39.1274 22.271 40.4739 23.6175 42.1349 23.6175Z" fill="#5D7082"/>
<path d="M48.3899 16.0877L41.7899 11.5127" stroke="#5D7082" stroke-width="3" stroke-miterlimit="10" stroke-linecap="round"/>
<path d="M41.2724 35.625H18.7349C15.8396 35.625 13.4924 37.9721 13.4924 40.8675V40.875C13.4924 43.7704 15.8396 46.1175 18.7349 46.1175H41.2724C44.1678 46.1175 46.5149 43.7704 46.5149 40.875V40.8675C46.5149 37.9721 44.1678 35.625 41.2724 35.625Z" stroke="#5D7082" stroke-width="2.7" stroke-miterlimit="10"/>
<path d="M15.21 40.9575H44.79" stroke="#5D7082" stroke-width="2.7" stroke-miterlimit="10" stroke-linecap="round"/>
<path d="M30 45.6302V36.2852" stroke="#5D7082" stroke-width="2.7" stroke-miterlimit="10" stroke-linecap="round"/>
<path d="M37.905 45.6302V36.2852" stroke="#5D7082" stroke-width="2.7" stroke-miterlimit="10" stroke-linecap="round"/>
<path d="M22.095 36.2852V45.6302" stroke="#5D7082" stroke-width="2.7" stroke-miterlimit="10" stroke-linecap="round"/>
</svg>
