<svg width="60" height="60" viewBox="0 0 60 60" fill="none" xmlns="http://www.w3.org/2000/svg">
<path d="M16.125 46.3801C16.125 46.3801 22.83 41.3101 30 41.3101C37.17 41.3101 43.875 46.3801 43.875 46.3801" stroke="#5D7082" stroke-width="3" stroke-miterlimit="10" stroke-linecap="round"/>
<path d="M17.865 23.6175C19.526 23.6175 20.8725 22.271 20.8725 20.61C20.8725 18.949 19.526 17.6025 17.865 17.6025C16.204 17.6025 14.8575 18.949 14.8575 20.61C14.8575 22.271 16.204 23.6175 17.865 23.6175Z" fill="#5D7082"/>
<path d="M42.135 23.6175C43.796 23.6175 45.1425 22.271 45.1425 20.61C45.1425 18.949 43.796 17.6025 42.135 17.6025C40.474 17.6025 39.1275 18.949 39.1275 20.61C39.1275 22.271 40.474 23.6175 42.135 23.6175Z" fill="#5D7082"/>
</svg>
