<svg xmlns="http://www.w3.org/2000/svg" viewBox="0 0 80 80"><defs><style>.cls-1{fill:none;stroke:#736a6a;stroke-miterlimit:10;stroke-width:4px;}</style></defs><g id="settings"><path class="cls-1" d="M44.27,72.14H35.73a2.62,2.62,0,0,1-1.48-2c-.48-2.09-1-4.17-1.51-6.26a1,1,0,0,0-.67-.78c-1-.39-2.05-.83-3.06-1.29a.92.92,0,0,0-1,0c-1.55,1-3.11,1.88-4.68,2.81a2,2,0,0,1-2.91-.35l-4.8-4.79a2,2,0,0,1-.36-2.92c.95-1.58,1.89-3.15,2.85-4.72a.81.81,0,0,0,0-.86c-.47-1-.93-2.1-1.33-3.17a.92.92,0,0,0-.74-.63q-3.28-.8-6.56-1.62a1.93,1.93,0,0,1-1.68-2.14c0-2.34,0-4.69,0-7a1.91,1.91,0,0,1,1.67-2.14c2.16-.55,4.33-1.1,6.5-1.61a1.07,1.07,0,0,0,.85-.76c.3-.86.65-1.71,1-2.55a.87.87,0,0,0-.05-.92c-1.08-1.77-2.14-3.54-3.2-5.32a2.06,2.06,0,0,1,.36-3l4.75-4.74a2,2,0,0,1,3-.36c1.72,1,3.43,2.07,5.17,3.08a1.11,1.11,0,0,0,.84,0c1.12-.44,2.22-1,3.34-1.39a.93.93,0,0,0,.64-.75c.53-2.18,1.06-4.37,1.61-6.55a1.93,1.93,0,0,1,2.14-1.68h7a1.92,1.92,0,0,1,2.15,1.67c.55,2.19,1.09,4.37,1.62,6.56a.89.89,0,0,0,.63.74c1,.39,2.05.83,3.05,1.28a.85.85,0,0,0,.92-.05c1.64-1,3.29-2,4.94-3a2,2,0,0,1,2.91.35l4.75,4.75a2,2,0,0,1,.38,3c-1,1.63-2,3.26-2.94,4.88a.85.85,0,0,0-.06.92c.47,1,.87,2.08,1.34,3.1a1.15,1.15,0,0,0,.61.58c2.06.53,4.12,1.06,6.2,1.52a2.73,2.73,0,0,1,2.13,1.52v8.54a2.6,2.6,0,0,1-2,1.48c-2.09.49-4.17,1-6.26,1.52a.93.93,0,0,0-.78.66c-.38,1-.81,2-1.26,3a.77.77,0,0,0,.06.85c1,1.62,2,3.25,2.93,4.89a2,2,0,0,1-.35,2.9c-1.59,1.61-3.19,3.2-4.78,4.8a2,2,0,0,1-2.92.36c-1.61-1-3.23-1.92-4.83-2.9a.77.77,0,0,0-.85,0c-1.08.49-2.19.92-3.27,1.42a1.08,1.08,0,0,0-.57.62c-.54,2.05-1.06,4.11-1.52,6.19A2.71,2.71,0,0,1,44.27,72.14ZM40,26.82A13.18,13.18,0,1,0,53.18,40,13.26,13.26,0,0,0,40,26.82Z"/></g></svg>