<svg width="60" height="60" viewBox="0 0 60 60" fill="none" xmlns="http://www.w3.org/2000/svg">
<path d="M30.39 46.3875C33.3392 46.3875 35.73 43.9967 35.73 41.0475C35.73 38.0983 33.3392 35.7075 30.39 35.7075C27.4408 35.7075 25.05 38.0983 25.05 41.0475C25.05 43.9967 27.4408 46.3875 30.39 46.3875Z" stroke="#5D7082" stroke-width="2.8" stroke-miterlimit="10" stroke-linecap="round"/>
<path d="M18.2551 23.6175C19.9161 23.6175 21.2626 22.271 21.2626 20.61C21.2626 18.949 19.9161 17.6025 18.2551 17.6025C16.5941 17.6025 15.2476 18.949 15.2476 20.61C15.2476 22.271 16.5941 23.6175 18.2551 23.6175Z" fill="#5D7082"/>
<path d="M12 16.0952L18.6 11.5127" stroke="#5D7082" stroke-width="3" stroke-miterlimit="10" stroke-linecap="round"/>
<path d="M42.525 23.6175C44.186 23.6175 45.5325 22.271 45.5325 20.61C45.5325 18.949 44.186 17.6025 42.525 17.6025C40.864 17.6025 39.5175 18.949 39.5175 20.61C39.5175 22.271 40.864 23.6175 42.525 23.6175Z" fill="#5D7082"/>
<path d="M48.7799 16.0952L42.1799 11.5127" stroke="#5D7082" stroke-width="3" stroke-miterlimit="10" stroke-linecap="round"/>
</svg>
