<svg width="60" height="60" viewBox="0 0 60 60" fill="none" xmlns="http://www.w3.org/2000/svg">
<path d="M30 46.3875C32.9492 46.3875 35.34 43.9967 35.34 41.0475C35.34 38.0983 32.9492 35.7075 30 35.7075C27.0508 35.7075 24.66 38.0983 24.66 41.0475C24.66 43.9967 27.0508 46.3875 30 46.3875Z" stroke="#5D7082" stroke-width="3" stroke-miterlimit="10" stroke-linecap="round"/>
<path d="M17.865 23.6175C19.526 23.6175 20.8725 22.271 20.8725 20.61C20.8725 18.949 19.526 17.6025 17.865 17.6025C16.204 17.6025 14.8575 18.949 14.8575 20.61C14.8575 22.271 16.204 23.6175 17.865 23.6175Z" fill="#5D7082"/>
<path d="M11.61 16.0952L18.21 11.5127" stroke="#5D7082" stroke-width="3" stroke-miterlimit="10" stroke-linecap="round"/>
<path d="M42.1349 23.6175C43.7959 23.6175 45.1424 22.271 45.1424 20.61C45.1424 18.949 43.7959 17.6025 42.1349 17.6025C40.4739 17.6025 39.1274 18.949 39.1274 20.61C39.1274 22.271 40.4739 23.6175 42.1349 23.6175Z" fill="#5D7082"/>
<path d="M48.3899 16.0952L41.7899 11.5127" stroke="#5D7082" stroke-width="3" stroke-miterlimit="10" stroke-linecap="round"/>
</svg>
