<svg width="50" height="60" viewBox="0 0 50 60" fill="none" xmlns="http://www.w3.org/2000/svg">
<path d="M27.0845 37.2785H23.3197C23.1464 37.1974 22.996 37.0745 22.8821 36.921C22.7683 36.7674 22.6944 36.5881 22.6673 36.399C22.4556 35.4799 22.2264 34.5653 22.0016 33.6462C21.9881 33.5677 21.9535 33.4943 21.9015 33.4339C21.8494 33.3735 21.782 33.3283 21.7062 33.3032C21.2654 33.1317 20.8025 32.9382 20.3572 32.7359C20.2916 32.6935 20.215 32.6709 20.1368 32.6709C20.0586 32.6709 19.982 32.6935 19.9164 32.7359C19.2331 33.1756 18.5453 33.5626 17.8532 33.9716C17.7607 34.0498 17.6529 34.1081 17.5368 34.1428C17.4206 34.1776 17.2985 34.1881 17.1781 34.1736C17.0577 34.1592 16.9416 34.1201 16.837 34.0589C16.7325 33.9976 16.6417 33.9155 16.5703 33.8177L14.4543 31.7113C14.3552 31.6405 14.2719 31.5499 14.2097 31.4454C14.1475 31.3409 14.1076 31.2246 14.0927 31.1039C14.0778 30.9833 14.0881 30.8608 14.123 30.7444C14.158 30.6279 14.2167 30.5199 14.2956 30.4272C14.7144 29.7324 15.1288 29.042 15.552 28.3516C15.5876 28.2949 15.6065 28.2294 15.6065 28.1625C15.6065 28.0956 15.5876 28.0301 15.552 27.9734C15.3448 27.5336 15.142 27.0499 14.9657 26.5794C14.9426 26.5074 14.8999 26.4433 14.8422 26.3944C14.7846 26.3454 14.7143 26.3135 14.6394 26.3023C13.6754 26.0678 12.7115 25.8303 11.7475 25.5899C11.5245 25.5624 11.3214 25.448 11.1827 25.2717C11.0439 25.0954 10.9807 24.8715 11.0069 24.6489C11.0069 23.6198 11.0069 22.5864 11.0069 21.5706C10.9927 21.4605 11.0005 21.3487 11.0299 21.2416C11.0594 21.1346 11.1097 21.0344 11.1782 20.9469C11.2467 20.8594 11.3318 20.7863 11.4288 20.7318C11.5257 20.6773 11.6326 20.6426 11.7431 20.6295C12.6953 20.3877 13.6519 20.1458 14.6086 19.9215C14.6963 19.9067 14.778 19.8675 14.8443 19.8084C14.9106 19.7492 14.9588 19.6726 14.9833 19.5873C15.1155 19.2091 15.2698 18.8353 15.4241 18.466C15.4588 18.4032 15.4751 18.332 15.4712 18.2605C15.4673 18.189 15.4434 18.12 15.4021 18.0614C14.926 17.283 14.4587 16.5047 13.9914 15.7219C13.9105 15.6268 13.8501 15.5161 13.8141 15.3966C13.778 15.2772 13.7671 15.1516 13.782 15.0277C13.7969 14.9039 13.8373 14.7844 13.9007 14.6769C13.964 14.5693 14.0489 14.4759 14.1501 14.4027L16.2441 12.3182C16.3149 12.2139 16.4074 12.126 16.5152 12.0604C16.6231 11.9948 16.7438 11.9531 16.8692 11.9381C16.9946 11.923 17.1218 11.9351 17.2421 11.9734C17.3624 12.0116 17.4731 12.0753 17.5667 12.1599C18.3249 12.5997 19.0788 13.0702 19.8458 13.5144C19.9645 13.5627 20.0975 13.5627 20.2161 13.5144C20.7099 13.3209 21.1948 13.0746 21.6886 12.9031C21.7619 12.88 21.8272 12.8369 21.8771 12.7786C21.9269 12.7202 21.9594 12.6491 21.9707 12.5733C22.2044 11.6146 22.438 10.6516 22.6805 9.69291C22.7081 9.47046 22.8227 9.26792 22.9995 9.12951C23.1762 8.99109 23.4007 8.92805 23.6239 8.95413H26.7098C26.8204 8.93997 26.9328 8.94776 27.0404 8.97705C27.148 9.00633 27.2487 9.05654 27.3368 9.12479C27.4248 9.19303 27.4985 9.27797 27.5536 9.37471C27.6087 9.47145 27.644 9.5781 27.6576 9.68852C27.9001 10.6516 28.1382 11.6102 28.3718 12.5733C28.3815 12.6485 28.4129 12.7194 28.4622 12.7771C28.5115 12.8349 28.5766 12.8772 28.6495 12.8987C29.0904 13.0702 29.5533 13.2637 29.9941 13.4616C30.0567 13.4972 30.1282 13.5141 30.2002 13.5102C30.2721 13.5063 30.3414 13.4818 30.3997 13.4396C31.1227 12.9998 31.8501 12.5601 32.5775 12.1203C32.67 12.0422 32.7777 11.9839 32.8939 11.9491C33.0101 11.9144 33.1322 11.9039 33.2526 11.9183C33.373 11.9328 33.4891 11.9718 33.5937 12.0331C33.6982 12.0943 33.789 12.1764 33.8603 12.2743L35.9544 14.3631C36.0596 14.433 36.1485 14.5247 36.2151 14.6319C36.2817 14.7391 36.3244 14.8594 36.3403 14.9845C36.3562 15.1097 36.3449 15.2367 36.3072 15.3571C36.2695 15.4775 36.2063 15.5884 36.1219 15.6823C35.681 16.3991 35.2402 17.1159 34.8258 17.8283C34.7828 17.8861 34.7575 17.955 34.7528 18.0267C34.7481 18.0985 34.7643 18.1701 34.7994 18.2329C35.0065 18.6726 35.1829 19.1476 35.3901 19.5961C35.4442 19.712 35.5403 19.8031 35.659 19.8512C36.5671 20.0842 37.4753 20.3173 38.3922 20.5196C38.5924 20.5437 38.7832 20.6175 38.9473 20.7343C39.1113 20.8511 39.2434 21.0071 39.3313 21.188V24.9435C39.2505 25.1168 39.1275 25.2672 38.9735 25.3809C38.8195 25.4946 38.6393 25.568 38.4496 25.5943C37.5282 25.8098 36.6112 26.0341 35.6899 26.2627C35.6104 26.2724 35.5355 26.305 35.4744 26.3565C35.4133 26.4081 35.3687 26.4764 35.346 26.553C35.1785 26.9927 34.9889 27.4325 34.7905 27.8722C34.7576 27.9302 34.7425 27.9966 34.7472 28.0631C34.7519 28.1296 34.7762 28.1932 34.817 28.246C35.2578 28.9584 35.6987 29.6752 36.1087 30.3964C36.1863 30.4886 36.2441 30.5958 36.2786 30.7112C36.313 30.8266 36.3233 30.9479 36.3089 31.0674C36.2944 31.187 36.2555 31.3023 36.1945 31.4063C36.1335 31.5102 36.0518 31.6005 35.9544 31.6717C35.2534 32.3797 34.5481 33.0789 33.8471 33.7825C33.7761 33.8813 33.6854 33.9644 33.5806 34.0265C33.4758 34.0886 33.3592 34.1283 33.2383 34.1432C33.1173 34.158 32.9946 34.1477 32.8778 34.1129C32.761 34.0781 32.6528 34.0195 32.5598 33.9408C31.8501 33.5011 31.1359 33.0965 30.4306 32.6655C30.375 32.6288 30.3098 32.6093 30.2432 32.6093C30.1766 32.6093 30.1114 32.6288 30.0558 32.6655C29.5797 32.881 29.0904 33.0701 28.6143 33.29C28.5562 33.3163 28.5041 33.354 28.4609 33.4009C28.4177 33.4477 28.3844 33.5027 28.363 33.5626C28.1249 34.4641 27.8957 35.37 27.6929 36.2847C27.6852 36.4884 27.6252 36.6868 27.5187 36.8608C27.4122 37.0348 27.2627 37.1786 27.0845 37.2785ZM25.2021 17.349C24.0529 17.349 22.9296 17.6889 21.9741 18.3258C21.0185 18.9626 20.2738 19.8678 19.834 20.9269C19.3943 21.986 19.2792 23.1513 19.5034 24.2756C19.7276 25.3999 20.281 26.4327 21.0936 27.2432C21.9062 28.0538 22.9415 28.6058 24.0686 28.8295C25.1957 29.0531 26.3639 28.9383 27.4256 28.4996C28.4873 28.061 29.3948 27.3181 30.0333 26.365C30.6717 25.4118 31.0125 24.2912 31.0125 23.1449C31.0032 21.6106 30.3881 20.1417 29.3004 19.0568C28.2128 17.9718 26.7403 17.3582 25.2021 17.349Z" fill="#5EB5F7"/>
<path d="M9.92948 49.0373C9.92948 48.9014 9.8989 48.7757 9.83774 48.6601C9.77998 48.5412 9.65936 48.4342 9.47588 48.339C9.2958 48.2405 9.02398 48.1556 8.66042 48.0842C8.35463 48.0197 8.07771 47.9432 7.82968 47.8549C7.58504 47.7665 7.37608 47.6595 7.2028 47.5338C7.03291 47.4081 6.9021 47.2603 6.81036 47.0904C6.71862 46.9205 6.67275 46.7217 6.67275 46.4941C6.67275 46.2766 6.72032 46.0711 6.81546 45.8774C6.91399 45.6837 7.0516 45.5121 7.22828 45.3626C7.40836 45.2131 7.62412 45.0959 7.87555 45.011C8.12698 44.926 8.40729 44.8835 8.71649 44.8835C9.15819 44.8835 9.53534 44.9617 9.84793 45.118C10.1605 45.2743 10.4001 45.4832 10.5666 45.7449C10.733 46.0031 10.8163 46.2902 10.8163 46.6062H9.87341C9.87341 46.4533 9.82754 46.3055 9.73581 46.1628C9.64747 46.0167 9.51665 45.8961 9.34337 45.8009C9.17348 45.7058 8.96452 45.6582 8.71649 45.6582C8.45486 45.6582 8.2425 45.699 8.07941 45.7806C7.91972 45.8587 7.8025 45.9589 7.72775 46.0812C7.65639 46.2036 7.62072 46.3327 7.62072 46.4686C7.62072 46.5705 7.63771 46.6623 7.67168 46.7438C7.70906 46.822 7.77362 46.895 7.86535 46.963C7.95709 47.0275 8.08621 47.0887 8.2527 47.1464C8.41918 47.2042 8.63154 47.262 8.88977 47.3197C9.34167 47.4217 9.71372 47.544 10.0059 47.6867C10.2981 47.8294 10.5156 48.0044 10.6583 48.2116C10.801 48.4189 10.8723 48.6703 10.8723 48.9659C10.8723 49.2072 10.8214 49.428 10.7194 49.6285C10.6209 49.8289 10.4765 50.0022 10.2862 50.1483C10.0994 50.291 9.87511 50.4032 9.61349 50.4847C9.35526 50.5629 9.06475 50.6019 8.74197 50.6019C8.25609 50.6019 7.84497 50.5153 7.50859 50.342C7.17222 50.1687 6.91739 49.9445 6.7441 49.6693C6.57082 49.394 6.48418 49.1035 6.48418 48.7977H7.43214C7.44573 49.056 7.52048 49.2615 7.65639 49.4144C7.7923 49.5639 7.95879 49.671 8.15586 49.7355C8.35293 49.7967 8.5483 49.8272 8.74197 49.8272C9.0002 49.8272 9.21595 49.7933 9.38924 49.7253C9.56592 49.6574 9.70013 49.5639 9.79187 49.445C9.88361 49.3261 9.92948 49.1902 9.92948 49.0373ZM14.3992 50.6019C14.0152 50.6019 13.667 50.5374 13.3544 50.4083C13.0452 50.2757 12.7785 50.0906 12.5542 49.8527C12.3334 49.6149 12.1635 49.3329 12.0446 49.0067C11.9256 48.6805 11.8662 48.3238 11.8662 47.9364V47.7224C11.8662 47.2739 11.9324 46.8746 12.065 46.5247C12.1975 46.1713 12.3775 45.8723 12.6052 45.6277C12.8328 45.383 13.0911 45.1978 13.3799 45.0721C13.6687 44.9464 13.9677 44.8835 14.2769 44.8835C14.671 44.8835 15.0108 44.9515 15.2962 45.0874C15.585 45.2233 15.8211 45.4136 16.0046 45.6582C16.1881 45.8995 16.324 46.1849 16.4123 46.5145C16.5007 46.8406 16.5449 47.1974 16.5449 47.5847V48.0078H12.4268V47.2382H15.602V47.1668C15.5884 46.9222 15.5374 46.6843 15.4491 46.4533C15.3641 46.2223 15.2282 46.032 15.0414 45.8825C14.8545 45.733 14.5997 45.6582 14.2769 45.6582C14.0628 45.6582 13.8657 45.7041 13.6857 45.7958C13.5056 45.8842 13.351 46.0167 13.2219 46.1934C13.0928 46.3701 12.9925 46.5858 12.9212 46.8406C12.8498 47.0955 12.8142 47.3894 12.8142 47.7224V47.9364C12.8142 48.198 12.8498 48.4444 12.9212 48.6754C12.9959 48.9031 13.103 49.1035 13.2423 49.2768C13.385 49.4501 13.5566 49.586 13.757 49.6845C13.9609 49.7831 14.1919 49.8323 14.4502 49.8323C14.7831 49.8323 15.0651 49.7644 15.2962 49.6285C15.5272 49.4926 15.7294 49.3108 15.9027 49.0831L16.4735 49.5367C16.3546 49.7168 16.2034 49.8884 16.0199 50.0515C15.8364 50.2146 15.6105 50.3471 15.3421 50.449C15.077 50.551 14.7628 50.6019 14.3992 50.6019ZM19.9545 44.9855V45.7092H16.973V44.9855H19.9545ZM17.9821 43.6451H18.925V49.1341C18.925 49.321 18.9539 49.462 19.0116 49.5571C19.0694 49.6523 19.1441 49.7151 19.2359 49.7457C19.3276 49.7763 19.4261 49.7916 19.5315 49.7916C19.6096 49.7916 19.6912 49.7848 19.7761 49.7712C19.8644 49.7542 19.9307 49.7406 19.9749 49.7304L19.98 50.5C19.9052 50.5238 19.8067 50.5459 19.6844 50.5663C19.5654 50.59 19.421 50.6019 19.2512 50.6019C19.0201 50.6019 18.8077 50.5561 18.6141 50.4643C18.4204 50.3726 18.2658 50.2197 18.1503 50.0056C18.0382 49.7882 17.9821 49.496 17.9821 49.129V43.6451ZM23.3692 44.9855V45.7092H20.3877V44.9855H23.3692ZM21.3968 43.6451H22.3397V49.1341C22.3397 49.321 22.3686 49.462 22.4263 49.5571C22.4841 49.6523 22.5588 49.7151 22.6506 49.7457C22.7423 49.7763 22.8409 49.7916 22.9462 49.7916C23.0243 49.7916 23.1059 49.7848 23.1908 49.7712C23.2792 49.7542 23.3454 49.7406 23.3896 49.7304L23.3947 50.5C23.3199 50.5238 23.2214 50.5459 23.0991 50.5663C22.9802 50.59 22.8358 50.6019 22.6659 50.6019C22.4348 50.6019 22.2225 50.5561 22.0288 50.4643C21.8351 50.3726 21.6805 50.2197 21.565 50.0056C21.4529 49.7882 21.3968 49.496 21.3968 49.129V43.6451ZM25.4996 44.9855V50.5H24.5516V44.9855H25.4996ZM24.4803 43.5228C24.4803 43.3699 24.5261 43.2407 24.6179 43.1354C24.713 43.0301 24.8523 42.9774 25.0358 42.9774C25.2159 42.9774 25.3535 43.0301 25.4486 43.1354C25.5472 43.2407 25.5964 43.3699 25.5964 43.5228C25.5964 43.6689 25.5472 43.7946 25.4486 43.8999C25.3535 44.0018 25.2159 44.0528 25.0358 44.0528C24.8523 44.0528 24.713 44.0018 24.6179 43.8999C24.5261 43.7946 24.4803 43.6689 24.4803 43.5228ZM27.9561 46.1628V50.5H27.0133V44.9855H27.9052L27.9561 46.1628ZM27.7319 47.5338L27.3395 47.5185C27.3429 47.1413 27.3989 46.7931 27.5076 46.4737C27.6164 46.1509 27.7693 45.8706 27.9663 45.6327C28.1634 45.3949 28.3978 45.2114 28.6697 45.0823C28.9449 44.9498 29.249 44.8835 29.582 44.8835C29.8538 44.8835 30.0984 44.9209 30.3159 44.9957C30.5333 45.067 30.7185 45.1825 30.8714 45.3422C31.0277 45.5019 31.1466 45.7092 31.2282 45.964C31.3097 46.2155 31.3505 46.523 31.3505 46.8865V50.5H30.4025V46.8763C30.4025 46.5875 30.36 46.3565 30.2751 46.1832C30.1902 46.0065 30.0661 45.8791 29.903 45.8009C29.74 45.7194 29.5395 45.6786 29.3016 45.6786C29.0672 45.6786 28.8531 45.7279 28.6595 45.8264C28.4692 45.925 28.3044 46.0609 28.1651 46.2341C28.0292 46.4074 27.9222 46.6062 27.844 46.8304C27.7693 47.0513 27.7319 47.2857 27.7319 47.5338ZM36.3553 44.9855H37.2116V50.3828C37.2116 50.8687 37.113 51.2832 36.916 51.6263C36.7189 51.9695 36.4437 52.2294 36.0903 52.4061C35.7403 52.5862 35.336 52.6762 34.8773 52.6762C34.687 52.6762 34.4628 52.6457 34.2046 52.5845C33.9497 52.5267 33.6983 52.4265 33.4503 52.2838C33.2056 52.1445 33.0001 51.9559 32.8336 51.7181L33.328 51.1575C33.559 51.4361 33.8002 51.6297 34.0517 51.7385C34.3065 51.8472 34.5579 51.9016 34.806 51.9016C35.105 51.9016 35.3632 51.8455 35.5807 51.7334C35.7981 51.6213 35.9663 51.4548 36.0852 51.2339C36.2075 51.0165 36.2687 50.748 36.2687 50.4286V46.1985L36.3553 44.9855ZM32.5584 47.8039V47.6969C32.5584 47.2756 32.6076 46.8933 32.7062 46.5501C32.8081 46.2036 32.9525 45.9063 33.1394 45.6582C33.3297 45.4102 33.559 45.2199 33.8274 45.0874C34.0958 44.9515 34.3982 44.8835 34.7346 44.8835C35.0812 44.8835 35.3836 44.9447 35.6418 45.067C35.9034 45.1859 36.1243 45.3609 36.3044 45.592C36.4878 45.8196 36.6322 46.0948 36.7376 46.4176C36.8429 46.7404 36.916 47.1057 36.9567 47.5134V47.9823C36.9194 48.3866 36.8463 48.7502 36.7376 49.073C36.6322 49.3957 36.4878 49.671 36.3044 49.8986C36.1243 50.1262 35.9034 50.3012 35.6418 50.4236C35.3802 50.5425 35.0744 50.6019 34.7244 50.6019C34.3948 50.6019 34.0958 50.5323 33.8274 50.393C33.5624 50.2537 33.3348 50.0583 33.1445 49.8069C32.9542 49.5554 32.8081 49.2598 32.7062 48.9201C32.6076 48.5769 32.5584 48.2048 32.5584 47.8039ZM33.5012 47.6969V47.8039C33.5012 48.0791 33.5284 48.3373 33.5828 48.5786C33.6405 48.8198 33.7272 49.0322 33.8427 49.2157C33.9616 49.3991 34.1128 49.5435 34.2963 49.6489C34.4798 49.7508 34.6989 49.8018 34.9538 49.8018C35.2664 49.8018 35.5246 49.7355 35.7285 49.603C35.9323 49.4705 36.0937 49.2955 36.2126 49.078C36.3349 48.8606 36.4301 48.6245 36.498 48.3696V47.1413C36.4607 46.9545 36.4029 46.7744 36.3248 46.6011C36.25 46.4244 36.1515 46.2681 36.0292 46.1322C35.9102 45.9929 35.7624 45.8825 35.5857 45.8009C35.4091 45.7194 35.2018 45.6786 34.964 45.6786C34.7057 45.6786 34.4832 45.733 34.2963 45.8417C34.1128 45.947 33.9616 46.0931 33.8427 46.28C33.7272 46.4635 33.6405 46.6776 33.5828 46.9222C33.5284 47.1634 33.5012 47.4217 33.5012 47.6969ZM41.8546 49.0373C41.8546 48.9014 41.824 48.7757 41.7628 48.6601C41.7051 48.5412 41.5844 48.4342 41.401 48.339C41.2209 48.2405 40.9491 48.1556 40.5855 48.0842C40.2797 48.0197 40.0028 47.9432 39.7548 47.8549C39.5101 47.7665 39.3012 47.6595 39.1279 47.5338C38.958 47.4081 38.8272 47.2603 38.7354 47.0904C38.6437 46.9205 38.5978 46.7217 38.5978 46.4941C38.5978 46.2766 38.6454 46.0711 38.7405 45.8774C38.8391 45.6837 38.9767 45.5121 39.1534 45.3626C39.3334 45.2131 39.5492 45.0959 39.8006 45.011C40.0521 44.926 40.3324 44.8835 40.6416 44.8835C41.0833 44.8835 41.4604 44.9617 41.773 45.118C42.0856 45.2743 42.3251 45.4832 42.4916 45.7449C42.6581 46.0031 42.7414 46.2902 42.7414 46.6062H41.7985C41.7985 46.4533 41.7526 46.3055 41.6609 46.1628C41.5726 46.0167 41.4417 45.8961 41.2685 45.8009C41.0986 45.7058 40.8896 45.6582 40.6416 45.6582C40.3799 45.6582 40.1676 45.699 40.0045 45.7806C39.8448 45.8587 39.7276 45.9589 39.6528 46.0812C39.5815 46.2036 39.5458 46.3327 39.5458 46.4686C39.5458 46.5705 39.5628 46.6623 39.5968 46.7438C39.6341 46.822 39.6987 46.895 39.7904 46.963C39.8822 47.0275 40.0113 47.0887 40.1778 47.1464C40.3443 47.2042 40.5566 47.262 40.8149 47.3197C41.2668 47.4217 41.6388 47.544 41.931 47.6867C42.2232 47.8294 42.4407 48.0044 42.5834 48.2116C42.7261 48.4189 42.7974 48.6703 42.7974 48.9659C42.7974 49.2072 42.7465 49.428 42.6445 49.6285C42.546 49.8289 42.4016 50.0022 42.2113 50.1483C42.0245 50.291 41.8002 50.4032 41.5386 50.4847C41.2803 50.5629 40.9898 50.6019 40.6671 50.6019C40.1812 50.6019 39.7701 50.5153 39.4337 50.342C39.0973 50.1687 38.8425 49.9445 38.6692 49.6693C38.4959 49.394 38.4093 49.1035 38.4093 48.7977H39.3572C39.3708 49.056 39.4456 49.2615 39.5815 49.4144C39.7174 49.5639 39.8839 49.671 40.0809 49.7355C40.278 49.7967 40.4734 49.8272 40.6671 49.8272C40.9253 49.8272 41.141 49.7933 41.3143 49.7253C41.491 49.6574 41.6252 49.5639 41.717 49.445C41.8087 49.3261 41.8546 49.1902 41.8546 49.0373Z" fill="#5EB5F7"/>
</svg>
