<svg width="50" height="60" viewBox="0 0 50 60" fill="none" xmlns="http://www.w3.org/2000/svg">
<path d="M35.7503 25.5247C36.5151 25.0981 36.5151 23.9978 35.7503 23.5713L16.665 12.9275C15.9196 12.5118 15.002 13.0507 15.002 13.9042V35.1918C15.002 36.0453 15.9196 36.5842 16.665 36.1685L35.7503 25.5247Z" fill="#8393A3"/>
<path d="M2.4842 46.0456V52.6202H1.53624V44.9855H2.40266L2.4842 46.0456ZM6.19962 47.6969V47.8039C6.19962 48.2048 6.15206 48.5769 6.05692 48.9201C5.96178 49.2598 5.82248 49.5554 5.639 49.8069C5.45892 50.0583 5.23637 50.2537 4.97134 50.393C4.70632 50.5323 4.40222 50.6019 4.05905 50.6019C3.70909 50.6019 3.39989 50.5442 3.13147 50.4286C2.86305 50.3131 2.6354 50.1449 2.44853 49.9241C2.26165 49.7032 2.11215 49.4382 2.00003 49.129C1.8913 48.8198 1.81655 48.4716 1.77578 48.0842V47.5134C1.81655 47.1057 1.893 46.7404 2.00512 46.4176C2.11725 46.0948 2.26505 45.8196 2.44853 45.592C2.6354 45.3609 2.86135 45.1859 3.12638 45.067C3.3914 44.9447 3.69719 44.8835 4.04376 44.8835C4.39033 44.8835 4.69783 44.9515 4.96625 45.0874C5.23467 45.2199 5.46062 45.4102 5.6441 45.6582C5.82757 45.9063 5.96518 46.2036 6.05692 46.5501C6.15206 46.8933 6.19962 47.2756 6.19962 47.6969ZM5.25166 47.8039V47.6969C5.25166 47.4217 5.22278 47.1634 5.16502 46.9222C5.10725 46.6776 5.01721 46.4635 4.8949 46.28C4.77597 46.0931 4.62308 45.947 4.4362 45.8417C4.24933 45.733 4.02677 45.6786 3.76855 45.6786C3.53071 45.6786 3.32344 45.7194 3.14676 45.8009C2.97348 45.8825 2.82568 45.9929 2.70336 46.1322C2.58104 46.2681 2.48081 46.4244 2.40266 46.6011C2.32791 46.7744 2.27185 46.9545 2.23447 47.1413V48.4614C2.30243 48.6992 2.39756 48.9235 2.51988 49.1341C2.6422 49.3414 2.80529 49.5096 3.00915 49.6387C3.21302 49.7644 3.46955 49.8272 3.77874 49.8272C4.03357 49.8272 4.25272 49.7746 4.4362 49.6693C4.62308 49.5605 4.77597 49.4127 4.8949 49.2259C5.01721 49.039 5.10725 48.8249 5.16502 48.5837C5.22278 48.339 5.25166 48.0791 5.25166 47.8039ZM8.42684 42.6716V50.5H7.47887V42.6716H8.42684ZM13.1922 49.5571V46.7183C13.1922 46.5009 13.148 46.3123 13.0596 46.1526C12.9747 45.9895 12.8456 45.8638 12.6723 45.7755C12.499 45.6871 12.285 45.6429 12.0301 45.6429C11.7923 45.6429 11.5833 45.6837 11.4033 45.7653C11.2266 45.8468 11.0873 45.9538 10.9853 46.0863C10.8868 46.2189 10.8375 46.3616 10.8375 46.5145H9.89466C9.89466 46.3174 9.94562 46.122 10.0476 45.9284C10.1495 45.7347 10.2956 45.5597 10.4859 45.4034C10.6795 45.2437 10.9106 45.118 11.179 45.0263C11.4508 44.9311 11.7532 44.8835 12.0862 44.8835C12.4871 44.8835 12.8405 44.9515 13.1463 45.0874C13.4555 45.2233 13.6967 45.4289 13.87 45.7041C14.0467 45.9759 14.135 46.3174 14.135 46.7285V49.2972C14.135 49.4807 14.1503 49.6761 14.1809 49.8833C14.2149 50.0906 14.2641 50.269 14.3287 50.4185V50.5H13.3451C13.2975 50.3913 13.2601 50.2469 13.2329 50.0668C13.2057 49.8833 13.1922 49.7134 13.1922 49.5571ZM13.3552 47.1566L13.3654 47.8192H12.4124C12.144 47.8192 11.9044 47.8413 11.6938 47.8854C11.4831 47.9262 11.3064 47.9891 11.1637 48.074C11.021 48.159 10.9123 48.266 10.8375 48.3951C10.7628 48.5208 10.7254 48.6686 10.7254 48.8385C10.7254 49.0118 10.7645 49.1698 10.8426 49.3125C10.9208 49.4552 11.038 49.569 11.1943 49.654C11.354 49.7355 11.5494 49.7763 11.7804 49.7763C12.0692 49.7763 12.324 49.7151 12.5449 49.5928C12.7657 49.4705 12.9407 49.321 13.0698 49.1443C13.2023 48.9676 13.2737 48.796 13.2839 48.6295L13.6865 49.0831C13.6627 49.2259 13.5982 49.3838 13.4929 49.5571C13.3875 49.7304 13.2465 49.8969 13.0698 50.0566C12.8966 50.2129 12.6893 50.3437 12.4481 50.449C12.2102 50.551 11.9418 50.6019 11.6428 50.6019C11.269 50.6019 10.9412 50.5289 10.6591 50.3828C10.3805 50.2367 10.1631 50.0413 10.0068 49.7967C9.85388 49.5486 9.77744 49.2717 9.77744 48.9659C9.77744 48.6703 9.8352 48.4104 9.95072 48.1861C10.0662 47.9585 10.2327 47.7699 10.4502 47.6204C10.6676 47.4675 10.9293 47.352 11.2351 47.2739C11.5409 47.1957 11.8823 47.1566 12.2595 47.1566H13.3552ZM17.086 49.9292L18.62 44.9855H19.6292L17.4172 51.3511C17.3663 51.487 17.2983 51.6331 17.2134 51.7894C17.1318 51.9491 17.0265 52.1003 16.8974 52.243C16.7683 52.3857 16.612 52.5013 16.4285 52.5896C16.2484 52.6813 16.0327 52.7272 15.7812 52.7272C15.7065 52.7272 15.6113 52.717 15.4958 52.6966C15.3803 52.6762 15.2987 52.6593 15.2512 52.6457L15.2461 51.8812C15.2733 51.8846 15.3157 51.888 15.3735 51.8914C15.4347 51.8982 15.4771 51.9016 15.5009 51.9016C15.715 51.9016 15.8968 51.8727 16.0463 51.8149C16.1958 51.7606 16.3215 51.6671 16.4234 51.5346C16.5287 51.4055 16.6188 51.2271 16.6935 50.9995L17.086 49.9292ZM15.9596 44.9855L17.3918 49.2666L17.6364 50.2605L16.9585 50.607L14.9301 44.9855H15.9596ZM24.0071 46.0812V50.5H23.0592V44.9855H23.9562L24.0071 46.0812ZM23.8135 47.5338L23.3752 47.5185C23.3786 47.1413 23.4278 46.7931 23.523 46.4737C23.6181 46.1509 23.7591 45.8706 23.946 45.6327C24.1329 45.3949 24.3656 45.2114 24.6442 45.0823C24.9228 44.9498 25.2456 44.8835 25.6126 44.8835C25.8708 44.8835 26.1086 44.9209 26.3261 44.9957C26.5435 45.067 26.7321 45.1809 26.8918 45.3371C27.0515 45.4934 27.1755 45.6939 27.2639 45.9385C27.3522 46.1832 27.3964 46.4788 27.3964 46.8254V50.5H26.4535V46.8712C26.4535 46.5824 26.4042 46.3514 26.3057 46.1781C26.2106 46.0048 26.0747 45.8791 25.898 45.8009C25.7213 45.7194 25.514 45.6786 25.2762 45.6786C24.9976 45.6786 24.7648 45.7279 24.578 45.8264C24.3911 45.925 24.2416 46.0609 24.1295 46.2341C24.0173 46.4074 23.9358 46.6062 23.8848 46.8304C23.8372 47.0513 23.8135 47.2857 23.8135 47.5338ZM27.3862 47.0139L26.7542 47.2076C26.7576 46.9052 26.8069 46.6147 26.902 46.3361C27.0005 46.0575 27.1415 45.8094 27.325 45.592C27.5119 45.3745 27.7412 45.2029 28.0131 45.0772C28.2849 44.9481 28.5958 44.8835 28.9457 44.8835C29.2413 44.8835 29.503 44.9226 29.7306 45.0008C29.9617 45.0789 30.1553 45.1995 30.3116 45.3626C30.4713 45.5223 30.5919 45.7279 30.6735 45.9793C30.755 46.2308 30.7958 46.5298 30.7958 46.8763V50.5H29.8478V46.8661C29.8478 46.5569 29.7986 46.3174 29.7 46.1475C29.6049 45.9742 29.469 45.8536 29.2923 45.7856C29.119 45.7143 28.9118 45.6786 28.6705 45.6786C28.4633 45.6786 28.2798 45.7143 28.1201 45.7856C27.9604 45.857 27.8262 45.9555 27.7175 46.0812C27.6087 46.2036 27.5255 46.3446 27.4677 46.5043C27.4134 46.664 27.3862 46.8338 27.3862 47.0139ZM31.9731 47.8039V47.6867C31.9731 47.2891 32.0309 46.9205 32.1464 46.5807C32.2619 46.2375 32.4284 45.9402 32.6459 45.6888C32.8633 45.434 33.1266 45.2369 33.4358 45.0976C33.745 44.9549 34.0916 44.8835 34.4755 44.8835C34.8629 44.8835 35.2112 44.9549 35.5203 45.0976C35.8329 45.2369 36.098 45.434 36.3154 45.6888C36.5363 45.9402 36.7045 46.2375 36.82 46.5807C36.9355 46.9205 36.9933 47.2891 36.9933 47.6867V47.8039C36.9933 48.2014 36.9355 48.5701 36.82 48.9099C36.7045 49.2496 36.5363 49.5469 36.3154 49.8018C36.098 50.0532 35.8346 50.2503 35.5254 50.393C35.2197 50.5323 34.8731 50.6019 34.4857 50.6019C34.0984 50.6019 33.7501 50.5323 33.4409 50.393C33.1317 50.2503 32.8667 50.0532 32.6459 49.8018C32.4284 49.5469 32.2619 49.2496 32.1464 48.9099C32.0309 48.5701 31.9731 48.2014 31.9731 47.8039ZM32.916 47.6867V47.8039C32.916 48.0791 32.9483 48.339 33.0128 48.5837C33.0774 48.8249 33.1742 49.039 33.3033 49.2259C33.4358 49.4127 33.6006 49.5605 33.7977 49.6693C33.9948 49.7746 34.2241 49.8272 34.4857 49.8272C34.744 49.8272 34.9699 49.7746 35.1636 49.6693C35.3607 49.5605 35.5237 49.4127 35.6529 49.2259C35.782 49.039 35.8788 48.8249 35.9434 48.5837C36.0113 48.339 36.0453 48.0791 36.0453 47.8039V47.6867C36.0453 47.4149 36.0113 47.1583 35.9434 46.9171C35.8788 46.6725 35.7803 46.4567 35.6478 46.2698C35.5187 46.0796 35.3556 45.9301 35.1585 45.8213C34.9648 45.7126 34.7372 45.6582 34.4755 45.6582C34.2173 45.6582 33.9897 45.7126 33.7926 45.8213C33.5989 45.9301 33.4358 46.0796 33.3033 46.2698C33.1742 46.4567 33.0774 46.6725 33.0128 46.9171C32.9483 47.1583 32.916 47.4149 32.916 47.6867ZM41.6516 49.4297V42.6716H42.5995V50.5H41.7331L41.6516 49.4297ZM37.9412 47.8039V47.6969C37.9412 47.2756 37.9922 46.8933 38.0941 46.5501C38.1995 46.2036 38.3473 45.9063 38.5375 45.6582C38.7312 45.4102 38.9606 45.2199 39.2256 45.0874C39.494 44.9515 39.793 44.8835 40.1226 44.8835C40.4691 44.8835 40.7715 44.9447 41.0298 45.067C41.2914 45.1859 41.5122 45.3609 41.6923 45.592C41.8758 45.8196 42.0202 46.0948 42.1255 46.4176C42.2309 46.7404 42.3039 47.1057 42.3447 47.5134V47.9823C42.3073 48.3866 42.2343 48.7502 42.1255 49.073C42.0202 49.3957 41.8758 49.671 41.6923 49.8986C41.5122 50.1262 41.2914 50.3012 41.0298 50.4236C40.7681 50.5425 40.4623 50.6019 40.1124 50.6019C39.7896 50.6019 39.494 50.5323 39.2256 50.393C38.9606 50.2537 38.7312 50.0583 38.5375 49.8069C38.3473 49.5554 38.1995 49.2598 38.0941 48.9201C37.9922 48.5769 37.9412 48.2048 37.9412 47.8039ZM38.8892 47.6969V47.8039C38.8892 48.0791 38.9164 48.3373 38.9707 48.5786C39.0285 48.8198 39.1168 49.0322 39.2358 49.2157C39.3547 49.3991 39.5059 49.5435 39.6894 49.6489C39.8728 49.7508 40.092 49.8018 40.3468 49.8018C40.6594 49.8018 40.9159 49.7355 41.1164 49.603C41.3203 49.4705 41.4834 49.2955 41.6057 49.078C41.728 48.8606 41.8231 48.6245 41.8911 48.3696V47.1413C41.8503 46.9545 41.7909 46.7744 41.7127 46.6011C41.638 46.4244 41.5394 46.2681 41.4171 46.1322C41.2982 45.9929 41.1504 45.8825 40.9737 45.8009C40.8004 45.7194 40.5949 45.6786 40.357 45.6786C40.0988 45.6786 39.8762 45.733 39.6894 45.8417C39.5059 45.947 39.3547 46.0931 39.2358 46.28C39.1168 46.4635 39.0285 46.6776 38.9707 46.9222C38.9164 47.1634 38.8892 47.4217 38.8892 47.6969ZM46.3557 50.6019C45.9718 50.6019 45.6235 50.5374 45.3109 50.4083C45.0017 50.2757 44.735 50.0906 44.5107 49.8527C44.2899 49.6149 44.12 49.3329 44.0011 49.0067C43.8822 48.6805 43.8227 48.3238 43.8227 47.9364V47.7224C43.8227 47.2739 43.889 46.8746 44.0215 46.5247C44.154 46.1713 44.3341 45.8723 44.5617 45.6277C44.7894 45.383 45.0476 45.1978 45.3364 45.0721C45.6252 44.9464 45.9242 44.8835 46.2334 44.8835C46.6275 44.8835 46.9673 44.9515 47.2527 45.0874C47.5415 45.2233 47.7777 45.4136 47.9611 45.6582C48.1446 45.8995 48.2805 46.1849 48.3689 46.5145C48.4572 46.8406 48.5014 47.1974 48.5014 47.5847V48.0078H44.3833V47.2382H47.5585V47.1668C47.5449 46.9222 47.494 46.6843 47.4056 46.4533C47.3207 46.2223 47.1848 46.032 46.9979 45.8825C46.811 45.733 46.5562 45.6582 46.2334 45.6582C46.0193 45.6582 45.8223 45.7041 45.6422 45.7958C45.4621 45.8842 45.3075 46.0167 45.1784 46.1934C45.0493 46.3701 44.9491 46.5858 44.8777 46.8406C44.8064 47.0955 44.7707 47.3894 44.7707 47.7224V47.9364C44.7707 48.198 44.8064 48.4444 44.8777 48.6754C44.9525 48.9031 45.0595 49.1035 45.1988 49.2768C45.3415 49.4501 45.5131 49.586 45.7135 49.6845C45.9174 49.7831 46.1485 49.8323 46.4067 49.8323C46.7397 49.8323 47.0217 49.7644 47.2527 49.6285C47.4838 49.4926 47.6859 49.3108 47.8592 49.0831L48.43 49.5367C48.3111 49.7168 48.1599 49.8884 47.9764 50.0515C47.793 50.2146 47.567 50.3471 47.2986 50.449C47.0336 50.551 46.7193 50.6019 46.3557 50.6019Z" fill="#8393A3"/>
</svg>
